<svg width="96" height="96" viewBox="0 0 96 96" fill="none" xmlns="http://www.w3.org/2000/svg">
<path fill-rule="evenodd" clip-rule="evenodd" d="M45.806 6.57199C47.164 5.80999 48.836 5.80999 50.192 6.57199C56.902 10.338 77.094 21.674 83.806 25.44C85.164 26.2 86 27.608 86 29.132C86 36.664 86 59.334 86 66.866C86 68.39 85.164 69.798 83.806 70.56C77.096 74.326 56.904 85.662 50.192 89.428C48.834 90.19 47.162 90.19 45.806 89.428C39.096 85.662 18.904 74.326 12.192 70.56C10.836 69.798 10 68.392 10 66.868C10 59.336 10 36.666 10 29.134C10 27.61 10.836 26.202 12.194 25.44C18.902 21.674 39.098 10.338 45.806 6.57199Z" fill="#68217A"/>
<path fill-rule="evenodd" clip-rule="evenodd" d="M10.608 68.808C10.076 68.096 10 67.42 10 66.51C10 59.022 10 36.482 10 28.992C10 27.476 10.834 26.076 12.188 25.32C18.874 21.576 38.998 10.306 45.684 6.56001C47.038 5.80201 48.872 5.81801 50.226 6.57601C56.912 10.32 76.968 21.494 83.654 25.238C84.194 25.542 84.606 25.908 84.974 26.39L10.608 68.808Z" fill="#9B4F96"/>
<path fill-rule="evenodd" clip-rule="evenodd" d="M48 20C63.454 20 76 32.546 76 48C76 63.454 63.454 76 48 76C32.546 76 20 63.454 20 48C20 32.546 32.546 20 48 20ZM48 34C55.726 34 62 40.272 62 48C62 55.726 55.726 62 48 62C40.274 62 34 55.726 34 48C34 40.272 40.272 34 48 34Z" fill="white"/>
<path fill-rule="evenodd" clip-rule="evenodd" d="M84.97 26.41C86.002 27.376 85.982 28.832 85.982 29.978C85.982 37.568 85.918 59.156 86 66.746C86.008 67.538 85.746 68.372 85.354 69L47.186 48L84.97 26.41Z" fill="#68217A"/>
<path opacity="0.05" fill-rule="evenodd" clip-rule="evenodd" d="M76 40V44H80V46H76V50H80V52H76V56H74V52H70V56H68V52H64V50H68V46H64V44H68V40H70V44H74V40H76ZM70 50H74V46H70V50ZM78 38H76H74H72H70H68H66V40V42H64H62V44V46V48V50V52V54H64H66V56V58H68H70H72H74H76H78V56V54H80H82V52V50V48V46V44V42H80H78V40V38Z" fill="black"/>
<path opacity="0.07" fill-rule="evenodd" clip-rule="evenodd" d="M76 40V44H80V46H76V50H80V52H76V56H74V52H70V56H68V52H64V50H68V46H64V44H68V40H70V44H74V40H76ZM70 50H74V46H70V50ZM77 39H76H74H73V40V43H71V40V39H70H68H67V40V43H64H63V44V46V47H64H67V49H64H63V50V52V53H64H67V56V57H68H70H71V56V53H73V56V57H74H76H77V56V53H80H81V52V50V49H80H77V47H80H81V46V44V43H80H77V40V39ZM71 47H73V49H71V47Z" fill="black"/>
<path fill-rule="evenodd" clip-rule="evenodd" d="M80 46V44H76V40H74V44H70V40H68V44H64V46H68V50H64V52H68V56H70V52H74V56H76V52H80V50H76V46H80ZM74 50H70V46H74V50Z" fill="white"/>
<path opacity="0.05" fill-rule="evenodd" clip-rule="evenodd" d="M48 20C58.256 20 67.204 25.542 72.082 33.774L59.936 40.714C57.474 36.694 53.054 34 48 34C40.272 34 34 40.272 34 48C34 55.726 40.274 62 48 62C53.14 62 57.624 59.216 60.058 55.082L72.322 61.83C67.5 70.284 58.42 76 48 76C32.546 76 20 63.454 20 48C20 32.546 32.546 20 48 20ZM48 18C31.458 18 18 31.458 18 48C18 64.542 31.458 78 48 78C58.734 78 68.72 72.184 74.06 62.82L75.066 61.056L73.286 60.076L61.022 53.328L59.32 52.392L58.334 54.066C56.18 57.726 52.22 60 48 60C41.384 60 36 54.616 36 48C36 41.384 41.384 36 48 36C52.198 36 56.022 38.152 58.23 41.758L59.244 43.414L60.928 42.452L73.074 35.512L74.838 34.504L73.802 32.756C68.41 23.654 58.524 18 48 18Z" fill="black"/>
<path opacity="0.07" fill-rule="evenodd" clip-rule="evenodd" d="M48 20C58.256 20 67.204 25.542 72.082 33.774L59.936 40.714C57.474 36.694 53.054 34 48 34C40.272 34 34 40.272 34 48C34 55.726 40.274 62 48 62C53.14 62 57.624 59.216 60.058 55.082L72.322 61.83C67.5 70.284 58.42 76 48 76C32.546 76 20 63.454 20 48C20 32.546 32.546 20 48 20ZM48 19C32.01 19 19 32.01 19 48C19 63.99 32.01 77 48 77C58.376 77 68.028 71.376 73.19 62.326L73.694 61.444L72.804 60.954L60.54 54.206L59.69 53.738L59.198 54.574C56.862 58.538 52.572 61 48 61C40.832 61 35 55.168 35 48C35 40.832 40.832 35 48 35C52.55 35 56.692 37.332 59.084 41.236L59.59 42.064L60.432 41.582L72.578 34.642L73.46 34.138L72.942 33.264C67.728 24.466 58.172 19 48 19Z" fill="black"/>
</svg>
