<svg width="100" height="100" viewBox="0 0 100 100" fill="none" xmlns="http://www.w3.org/2000/svg">
<path d="M48.0916 23.4938C44.6895 18.3917 43.9541 11.5729 43.7937 8.77086C35.1521 10.6396 26.5666 13.9917 27.0625 16.4604C27.125 16.7709 27.5166 17.1438 28.1666 17.5063L27.15 19.325C25.9083 18.6292 25.2104 17.8271 25.0208 16.8688C24.4604 14.075 27.625 11.5479 34.6916 9.14169C39.5166 7.49794 44.3833 6.51669 44.5896 6.47711L45.8333 6.22711V7.50003C45.8333 7.58753 45.8875 16.4334 49.825 22.3396L48.0916 23.4938Z" fill="#CFD8DC"/>
<path d="M51.5646 89.5834H51.0416C33.975 89.5834 14.9812 84.2229 12.7375 75.2521C11.3687 69.7729 15.8458 63.7188 25.6833 57.75L26.7666 59.5292C17.9146 64.9021 13.65 70.3042 14.7604 74.7479C16.7083 82.5354 34.7083 87.3896 50.4958 87.4979C52.3729 84.6917 62.4583 68.2063 56.7021 46.0959L58.7166 45.5709C65.2771 70.7625 52.0125 88.9813 51.8791 89.1625L51.5646 89.5834Z" fill="#CFD8DC"/>
<path d="M20.6896 81.8875C19.5666 81.8875 19.0104 81.7646 18.9187 81.7417C18.5521 81.6521 18.2646 81.3708 18.1646 81.0083C18.0625 80.6458 18.1666 80.2562 18.4333 79.9917C18.5833 79.8417 33.4271 64.975 35.4312 52.9542L37.4854 53.2958C35.7625 63.6375 25.5791 75.4271 21.5354 79.7687C25.575 79.5375 35.775 77.6458 55.3562 66.6854C40.075 65.0104 37.6583 52.7771 37.6333 52.6458L39.6812 52.2687C39.7791 52.7812 42.2354 64.7917 58.9396 64.7917C58.9458 64.7917 58.95 64.7917 58.9562 64.7917C59.4291 64.7917 59.8396 65.1083 59.9604 65.5625C60.0854 66.0167 59.8854 66.4979 59.4791 66.7354C36.0729 80.2958 24.7229 81.8854 20.6896 81.8875Z" fill="#CFD8DC"/>
<path d="M30.2583 86.875C29.8271 86.875 29.4354 86.6084 29.2833 86.1979C29.1188 85.7584 29.2688 85.2604 29.6521 84.9854C29.7229 84.9334 33.4292 82.1979 37.3729 76.1771C35.8563 75.5063 34.3208 74.7229 32.7979 73.8084C30.9479 72.6979 29.55 71.5063 28.5063 70.2854C23.1521 71.6979 18.2104 72.2563 13.8708 71.8875L14.0458 69.8125C17.9542 70.1438 22.3979 69.6813 27.2146 68.4792C23.9375 62.8792 26.9459 57.3209 26.9875 57.2459L28.8083 58.2604C28.6688 58.5146 26.1729 63.1979 29.3271 67.9125C33.9125 66.5959 38.8042 64.6479 43.8667 62.1167C45.0313 58.2938 45.9417 53.9459 46.4188 49.0417C46.4521 48.7063 46.6438 48.4084 46.9354 48.2396C47.2271 48.0709 47.5833 48.0563 47.8896 48.1959C47.9563 48.2271 54.6896 51.3021 59.5646 53.3084C59.9188 53.4542 60.1646 53.7834 60.2042 54.1646C60.2458 54.5459 60.0729 54.9167 59.7542 55.1334C54.9854 58.3834 50.2479 61.2021 45.6333 63.5542C44.1708 68.1896 42.3604 72.0479 40.5104 75.2021C48.2229 78.0834 54.9167 78.1271 55.0021 78.1271C55.4771 78.1271 55.8917 78.4479 56.0104 78.9084C56.1292 79.3688 55.9229 79.85 55.5083 80.0813C46.05 85.3354 30.9938 86.8146 30.3583 86.875C30.325 86.8729 30.2917 86.875 30.2583 86.875ZM39.3938 77.0146C37.2271 80.3771 35.0979 82.7917 33.5063 84.3688C37.6688 83.7563 44.9667 82.4146 51.0229 79.9125C48.1229 79.5563 43.925 78.7646 39.3938 77.0146ZM30.7646 69.6479C31.5833 70.4646 32.6042 71.2625 33.8688 72.0229C35.4021 72.9438 36.9583 73.725 38.4938 74.3875C40.0646 71.7542 41.6208 68.5938 42.9563 64.8709C38.7458 66.875 34.6583 68.475 30.7646 69.6479ZM48.3375 50.6854C47.9104 54.3688 47.2521 57.7292 46.4354 60.7896C49.8938 58.9459 53.4229 56.8396 56.9813 54.4854C53.7542 53.1188 50.2063 51.5292 48.3375 50.6854Z" fill="#CFD8DC"/>
<path d="M37.3417 22.0834C37.098 22.0834 36.8563 21.9958 36.6646 21.8333C33.3105 18.9625 29.3625 13.1208 29.1959 12.8729C28.9271 12.475 28.9688 11.9438 29.2917 11.5896C29.6125 11.2334 30.1417 11.15 30.5584 11.3771C30.5813 11.3833 32.5125 12.1792 45.5938 14.3584C45.9709 14.4209 46.2813 14.6833 46.4063 15.0417C46.5334 15.4 46.4521 15.8 46.198 16.0833C42.5355 20.1521 37.9084 21.9438 37.7125 22.0167C37.5917 22.0604 37.4646 22.0834 37.3417 22.0834ZM32.598 14.0542C33.9125 15.8229 35.8063 18.2125 37.5396 19.8229C38.6042 19.3375 40.9917 18.1188 43.2563 16.0771C37.875 15.1583 34.5917 14.5042 32.598 14.0542Z" fill="#CFD8DC"/>
<path d="M45.5062 50.8333C45.3645 50.8333 45.2208 50.8042 45.0875 50.7458C44.6729 50.5625 44.4229 50.1333 44.4708 49.6833C45.0791 43.9562 36.2916 41.6583 36.202 41.6375C35.8395 41.5458 35.552 41.2646 35.4541 40.9042C35.3562 40.5437 35.4583 40.1562 35.7229 39.8917C36.1541 39.4604 46.4291 29.2708 59.3208 23.675C59.6812 23.5187 60.0895 23.5771 60.3937 23.8208C60.6958 24.0667 60.8354 24.4604 60.7562 24.8396C58.2854 36.8062 46.777 49.9312 46.2895 50.4833C46.0833 50.7104 45.7958 50.8333 45.5062 50.8333ZM38.4479 40.1771C40.9145 41.1042 45.2354 43.25 46.3291 47.1687C49.3479 43.4021 55.7916 34.725 58.1979 26.4729C49.0583 30.8687 41.3625 37.4979 38.4479 40.1771Z" fill="#B71C1C"/>
<path d="M27.2479 59.0833L26.2583 57.25C30.1812 55.1354 34.675 51.2437 38.3562 46.7208C35.2229 48.8666 33.4291 50.3354 33.3729 50.3833L32.0416 48.7791C32.1229 48.7125 35.7166 45.7646 41.6895 42.0708C43.3291 39.4333 44.5896 36.7208 45.2375 34.1208C45.3479 33.6791 45.4437 33.2521 45.5208 32.8396C41.5104 31.4083 37.8104 30.5604 35.2687 30.1958C34.8833 30.1416 34.5625 29.8771 34.4333 29.5125C34.3041 29.1479 34.3896 28.7396 34.65 28.4562C34.8271 28.2646 39.0583 23.7312 44.3458 21.2416C44.7562 21.0479 45.2479 21.1437 45.5562 21.4791C45.6958 21.6312 48.5562 24.8437 47.8291 31.4896C50.2354 32.4271 52.7145 33.5666 55.102 34.9229C60.85 32.3396 67.3771 30.0146 74.3291 28.6104C74.6875 28.5396 75.0854 28.6687 75.3312 28.9604C75.575 29.2521 75.6416 29.6541 75.5041 30.0083C72.7958 36.95 65.5333 44.3646 65.225 44.6771C65.0145 44.8896 64.727 44.9958 64.427 44.9854C64.1291 44.9687 63.8541 44.8271 63.6666 44.5937C61.3333 41.6604 58.2833 39.2312 54.9937 37.2541C50.4625 39.3458 46.45 41.5833 43.152 43.6062C38.9437 50.175 32.5916 56.2062 27.2479 59.0833ZM57.275 36.2416C59.9625 37.975 62.4646 40.0125 64.5333 42.3833C66.2583 40.5125 70.3979 35.7833 72.7458 31.0875C67.225 32.3583 62 34.1979 57.275 36.2416ZM47.4979 33.5875C47.4291 33.9271 47.35 34.275 47.2625 34.6291C46.825 36.3771 46.1291 38.1729 45.2375 39.9646C47.5208 38.6604 50.0479 37.3146 52.775 36.0104C51.0291 35.0854 49.2479 34.2812 47.4979 33.5875ZM37.6 28.4833C39.9146 28.9375 42.7666 29.6791 45.8104 30.7458C46.1271 26.9062 45.0895 24.5541 44.4625 23.5125C41.5958 25.0083 39.0854 27.1125 37.6 28.4833Z" fill="#B71C1C"/>
<path d="M37.6042 38.5416C37.6042 47.6666 30 54.9166 24.5208 60.2083C23.6042 61.1041 20.5 61.25 20.5 61.25C21.2708 60.4583 22.1458 59.625 23.0833 58.7291C28.2917 53.6875 35.5208 46.7916 35.5208 38.5416C35.5208 28.7708 31.5833 24.9166 28.4792 21.8333C27.1042 20.4375 25.9375 19.1041 25.2292 17.4791L25.875 17.2083C26.5833 17.5208 27.3958 17.875 28.0208 18.1458C28.5208 18.875 29.1875 19.5833 29.9583 20.3541C33.1458 23.5416 37.6042 27.9166 37.6042 38.5416Z" fill="#B71C1C"/>
<path d="M89.4479 41.2375C89.4479 41.2375 88.1875 41.4166 87.8333 41.4583C69.5833 43.4791 50.75 48.7291 39.9792 53.0416C36.0833 54.6041 32.0417 56.5 28.3542 58.625C28.3333 58.6458 28.3125 58.6458 28.2708 58.6666C26.1042 59.9166 20.8333 62.5 16.5625 64.7708C22.8125 58.125 34.5208 53 39.1875 51.125C49.75 46.8958 67.8958 41.7916 85.75 39.6041C83.6458 37.1458 78.5 31.9375 68.375 28.0625C62.4583 25.7708 53.4583 24.4791 45.5208 23.3333C32.8958 21.5208 25.7083 20.3125 25.0208 16.875C24.875 16.1875 24.9792 15.5 25.2917 14.8333C25.9792 15.9583 26.9583 16.75 27.6042 17.2083C27.9167 17.4166 28.1458 17.5416 28.2292 17.5833L28.25 17.6041C31.2083 19.1666 39.1875 20.3125 45.8333 21.2708C53.875 22.4375 62.9792 23.75 69.125 26.1041C83.4375 31.625 88.375 39.5208 88.5833 39.8541C88.7708 40.1666 89.4479 41.2375 89.4479 41.2375Z" fill="#B71C1C"/>
</svg>
