<svg width="96" height="96" viewBox="0 0 96 96" fill="none" xmlns="http://www.w3.org/2000/svg">
<path d="M48 19.208C36.822 19.208 29.306 24.086 25.448 33.844C25.048 34.854 26.282 35.684 27.08 34.946C31.15 31.182 35.724 29.936 40.8 31.204C44.452 32.116 47.062 34.766 49.952 37.698C54.656 42.472 60.102 48 72 48C83.178 48 90.696 43.12 94.552 33.362C94.952 32.352 93.718 31.522 92.92 32.26C88.85 36.024 84.276 37.272 79.2 36.004C75.55 35.092 72.94 32.442 70.05 29.51C65.344 24.734 59.896 19.208 48 19.208ZM24 48C12.822 48 5.304 52.88 1.448 62.638C1.048 63.648 2.282 64.478 3.08 63.74C7.15 59.976 11.724 58.728 16.8 59.998C20.45 60.912 23.06 63.56 25.95 66.49C30.656 71.266 36.104 76.794 48 76.794C59.178 76.794 66.696 71.914 70.552 62.156C70.952 61.146 69.718 60.316 68.92 61.054C64.85 64.818 60.276 66.066 55.2 64.796C51.548 63.884 48.938 61.234 46.048 58.304C41.344 53.528 35.898 48 24 48Z" fill="url(#paint0_linear_16_169)"/>
<defs>
<linearGradient id="paint0_linear_16_169" x1="43.722" y1="16.474" x2="51.406" y2="73.104" gradientUnits="userSpaceOnUse">
<stop stop-color="#00C1E0"/>
<stop offset="1" stop-color="#009BB8"/>
</linearGradient>
</defs>
</svg>
