<svg width="96" height="96" viewBox="0 0 96 96" fill="none" xmlns="http://www.w3.org/2000/svg">
<path d="M80 12H16C13.79 12 12 13.79 12 16V80C12 82.21 13.79 84 16 84H80C82.21 84 84 82.21 84 80V16C84 13.79 82.21 12 80 12Z" fill="url(#paint0_linear_16_204)"/>
<path opacity="0.05" d="M77.638 61.212C76.01 59.082 73.84 57.846 71.736 56.83C71.098 56.522 70.458 56.22 69.818 55.918C68.488 55.292 67.112 54.644 65.814 53.952C64.844 53.434 65.05 52.934 65.16 52.664C65.264 52.41 65.688 52.232 66.192 52.232C66.342 52.232 66.496 52.248 66.648 52.276C67.216 52.382 68.28 53.29 68.836 54.142L69.38 54.974L69.922 55.806L70.758 55.268L71.594 54.73C71.758 54.624 75.644 52.126 77.112 51.062L77.72 50.622L78.328 50.182L78.076 49.476L77.824 48.77C77.726 48.494 75.296 42.01 65.382 42.01H65.37C62.148 42.094 59.426 43.216 57.238 45.348C56.778 45.798 56.37 46.3 56.004 46.838V44V43V42H55.004H54H28H27H26V43V44V50.068V51.068V52.068H27H28H35.944V77.944V78.944V79.944H36.944H37.944H43.93H44.926H45.922L45.926 78.948L45.93 77.952L46.028 52.068H54H54.148C54.102 52.544 54.072 53.026 54.082 53.514C54.144 56.66 55.41 59.572 57.556 61.502C59.008 62.808 60.686 63.73 62.31 64.622L62.738 64.858C63.82 65.456 64.93 65.98 66.002 66.488C66.854 66.892 67.684 67.284 68.496 67.71C68.798 67.868 68.918 68.076 68.906 68.426C68.892 68.898 68.708 69.156 68.254 69.348C67.558 69.642 66.88 69.79 66.236 69.79C65.268 69.79 64.328 69.448 63.438 68.772C62.962 68.41 62.496 67.862 62 67.28C61.718 66.95 61.432 66.616 61.128 66.286L60.582 65.698L60.036 65.11L59.344 65.514L58.652 65.918C56.914 66.932 52.964 69.31 52.964 69.31L52.12 69.818L51.276 70.326L51.772 71.178L52.268 72.03C53.694 74.476 55.69 76.604 57.61 77.726C60.272 79.282 63.18 80.07 66.254 80.07C67.928 80.07 69.684 79.834 71.474 79.37C75.338 78.368 78.138 75.868 79.358 72.33C80.642 68.622 79.966 64.256 77.638 61.212Z" fill="black"/>
<path opacity="0.05" d="M65.38 43.01H65.368H65.354C62.432 43.086 59.936 44.114 57.934 46.064C56.066 47.886 55.026 50.592 55.084 53.494C55.142 56.366 56.286 59.014 58.226 60.76C59.592 61.988 61.22 62.884 62.794 63.748L63.222 63.984C64.278 64.566 65.372 65.086 66.432 65.588C67.282 65.99 68.132 66.392 68.962 66.828C69.604 67.164 69.932 67.73 69.908 68.462C69.88 69.322 69.456 69.932 68.646 70.274C67.826 70.62 67.018 70.794 66.24 70.794C65.05 70.794 63.904 70.382 62.836 69.572C62.274 69.146 61.772 68.556 61.242 67.932C60.97 67.614 60.694 67.288 60.398 66.97L59.852 66.382L59.16 66.786C57.426 67.798 53.484 70.172 53.484 70.172L52.64 70.68L53.136 71.532C54.478 73.836 56.34 75.83 58.118 76.868C60.626 78.332 63.364 79.076 66.258 79.076C67.848 79.076 69.518 78.852 71.226 78.408C74.754 77.492 77.308 75.22 78.416 72.01C79.59 68.606 78.974 64.608 76.844 61.822C75.344 59.858 73.294 58.696 71.302 57.732C70.668 57.426 70.03 57.124 69.392 56.824C68.05 56.192 66.662 55.538 65.342 54.834C64.202 54.226 63.808 53.322 64.232 52.286C64.498 51.636 65.248 51.232 66.19 51.232C66.4 51.232 66.616 51.252 66.832 51.294C67.774 51.47 69.04 52.628 69.672 53.598L70.214 54.43L71.05 53.892C71.214 53.786 75.088 51.294 76.524 50.256L77.132 49.816L76.88 49.11C76.792 48.858 74.598 43.01 65.38 43.01Z" fill="black"/>
<path opacity="0.05" d="M55 43H54H28H27V44V50.068V51.068H28H36.944V77.944V78.944H37.944H43.93H44.926L44.93 77.948L45.032 51.068H54H55V50.068V44V43Z" fill="black"/>
<path d="M59.664 67.648C60.564 68.618 61.282 69.644 62.232 70.366C64.294 71.934 66.626 72.208 69.034 71.192C70.192 70.704 70.868 69.76 70.908 68.492C70.944 67.372 70.404 66.454 69.426 65.94C67.542 64.952 65.566 64.134 63.704 63.106C62.036 62.186 60.294 61.274 58.894 60.014C55.184 56.674 55.192 50.13 58.63 46.78C60.5 44.958 62.758 44.078 65.378 44.01C73.998 44.01 75.936 49.442 75.936 49.442C74.506 50.476 70.508 53.048 70.508 53.048C69.792 51.95 68.328 50.556 67.014 50.308C65.362 49.998 63.828 50.626 63.304 51.904C62.7 53.378 63.224 54.836 64.868 55.714C66.826 56.758 68.862 57.66 70.862 58.628C72.822 59.576 74.698 60.664 76.046 62.426C79.454 66.884 78.776 75.414 70.972 77.438C66.706 78.544 62.536 78.292 58.618 76.002C56.772 74.924 55.052 72.84 53.996 71.026C54 71.026 57.934 68.658 59.664 67.648Z" fill="white"/>
<path d="M28 44V50.068H37.944V77.944H43.93L44.036 50.068H54V44H28Z" fill="white"/>
<defs>
<linearGradient id="paint0_linear_16_204" x1="12" y1="48" x2="84" y2="48" gradientUnits="userSpaceOnUse">
<stop stop-color="#0D61A9"/>
<stop offset="1" stop-color="#16528C"/>
</linearGradient>
</defs>
</svg>
