<svg width="96" height="96" viewBox="0 0 96 96" fill="none" xmlns="http://www.w3.org/2000/svg">
<path d="M14.384 14.352L19.638 73.892C19.856 76.366 21.578 78.452 23.966 79.134L45.252 85.216C47.048 85.73 48.95 85.73 50.746 85.216L72.032 79.134C74.42 78.452 76.142 76.368 76.36 73.892L81.614 14.352C81.822 12.012 79.98 10 77.632 10H18.368C16.02 10 14.178 12.012 14.384 14.352Z" fill="url(#paint0_linear_16_104)"/>
<path d="M48 16V79.8L67.752 74.156C69.346 73.7 70.494 72.308 70.638 70.658L75.21 18.174C75.312 17.004 74.392 16 73.218 16H48Z" fill="#35C1F1"/>
<path d="M66.2 26H48V34H57.8L57.2 42H48V50H56.8L56.2 59L48 61.8V70.2L63.8 65L65.2 42L66.2 26Z" fill="white"/>
<path d="M48 26V34H30.2L29.6 26H48ZM38.8 42L39.2 50H48V42H38.8ZM39.6 54H31.6L32.2 65L48 70.2V61.8L39.8 59L39.6 54Z" fill="#D6E0E9"/>
<path opacity="0.05" d="M66.2 26L65.2 42L63.8 65L48 70.2L32.2 65L31.6 54H39.6L39.8 59L48 61.8L56.2 59L56.8 50H48H39.2L38.8 42H48H57.2L57.8 34H48H30.2L29.6 26H48H66.2ZM68.328 24H66.2H48H29.6H27.444L27.606 26.15L28.206 34.15L28.344 36H30.2H48H55.644L55.344 40H48H38.8H36.698L36.802 42.1L37.202 50.1L37.298 52H31.6H29.488L29.604 54.108L30.204 65.108L30.278 66.472L31.576 66.9L47.376 72.1L48 72.306L48.626 72.1L64.426 66.9L65.714 66.476L65.796 65.122L67.196 42.122L68.196 26.126L68.328 24ZM41.522 52H48H54.662L54.292 57.538L48 59.686L41.744 57.55L41.598 53.92L41.522 52Z" fill="black"/>
<path opacity="0.07" d="M66.2 26L65.2 42L63.8 65L48 70.2L32.2 65L31.6 54H39.6L39.8 59L48 61.8L56.2 59L56.8 50H48H39.2L38.8 42H48H57.2L57.8 34H48H30.2L29.6 26H48H66.2ZM67.264 25H66.2H48H29.6H28.522L28.602 26.074L29.202 34.074L29.272 35H30.2H48H56.722L56.272 41H48H38.8H37.748L37.8 42.05L38.2 50.05L38.248 51H39.2H48H55.732L55.248 58.268L48 60.744L40.772 58.276L40.6 53.96L40.56 53H39.6H31.6H30.544L30.602 54.054L31.202 65.054L31.24 65.736L31.888 65.95L47.688 71.15L48 71.252L48.312 71.15L64.112 65.95L64.756 65.738L64.798 65.06L66.198 42.06L67.198 26.062L67.264 25Z" fill="black"/>
<defs>
<linearGradient id="paint0_linear_16_104" x1="32.66" y1="-5.496" x2="64.586" y2="82.218" gradientUnits="userSpaceOnUse">
<stop stop-color="#2AA4F4"/>
<stop offset="1" stop-color="#007AD9"/>
</linearGradient>
</defs>
</svg>
