<svg width="96" height="96" viewBox="0 0 96 96" fill="none" xmlns="http://www.w3.org/2000/svg">
<path d="M12 84V12H84V84H12Z" fill="#F7DF1E"/>
<path d="M59.076 65.894C60.46 68.142 61.964 70.296 65.15 70.296C67.826 70.296 69.23 68.966 69.23 67.126C69.23 64.924 67.778 64.142 64.834 62.86L63.22 62.172C58.562 60.196 55.464 57.72 55.464 52.49C55.464 47.67 59.154 44.002 64.92 44.002C69.026 44.002 71.976 45.424 74.104 49.148L69.076 52.362C67.97 50.386 66.774 49.608 64.92 49.608C63.028 49.608 61.83 50.802 61.83 52.362C61.83 54.29 63.03 55.07 65.8 56.264L67.414 56.952C72.904 59.29 76 61.678 76 67.046C76 72.83 71.432 76 65.3 76C59.302 76 55.896 72.99 54 69.264L59.076 65.894ZM35.904 66.058C36.916 67.87 38.454 69.264 40.666 69.264C42.782 69.264 44 68.428 44 65.178V44H50.666V66.202C50.666 72.936 46.76 76 41.056 76C35.902 76 32.182 72.508 30.666 69.264L35.904 66.058Z" fill="#000001"/>
</svg>
