<svg width="100" height="100" viewBox="0 0 100 100" fill="none" xmlns="http://www.w3.org/2000/svg">
<path d="M50.0145 94.6229C48.8187 94.6229 47.6333 94.3104 46.5854 93.7062L35.6687 87.2417C34.0375 86.3292 34.8333 86.0062 35.3708 85.8208C37.5458 85.0604 37.9854 84.8875 40.3062 83.5687C40.55 83.4292 40.8687 83.4792 41.1187 83.6271L49.5062 88.6042C49.8083 88.7687 50.2395 88.7687 50.5187 88.6042L83.2208 69.7271C83.5229 69.5542 83.7208 69.2042 83.7208 68.8437V31.1083C83.7208 30.7312 83.525 30.3958 83.2145 30.2083L50.527 11.3458C50.225 11.1667 49.8229 11.1667 49.5208 11.3458L16.8375 30.2062C16.5208 30.3854 16.3187 30.7375 16.3187 31.0979V68.8354C16.3187 69.1958 16.5145 69.5396 16.827 69.7104L25.7833 74.8833C30.6458 77.3146 33.6166 74.45 33.6166 71.5687V34.325C33.6166 33.7937 34.0333 33.3833 34.5666 33.3833H38.7083C39.225 33.3833 39.65 33.7917 39.65 34.325V71.5875C39.65 78.0708 36.1145 81.7958 29.9666 81.7958C28.075 81.7958 26.5854 81.7958 22.427 79.75L13.8479 74.8062C11.727 73.5771 10.4166 71.2833 10.4166 68.8375V31.1C10.4166 28.6437 11.727 26.3521 13.8458 25.1396L46.5833 6.25416C48.6541 5.08333 51.4041 5.08333 53.4604 6.25416L86.1562 25.1479C88.2645 26.3667 89.5833 28.6521 89.5833 31.1083V68.8458C89.5833 71.2937 88.2645 73.5771 86.1541 74.8062L53.4583 93.6896C52.4104 94.2958 51.2229 94.6062 50.0125 94.6062" fill="#21A366"/>
<path d="M60.1167 68.6188C45.8084 68.6188 42.8083 62.05 42.8083 56.5417C42.8083 56.0188 43.2313 55.6 43.7563 55.6H47.9813C48.4479 55.6 48.8417 55.9396 48.9146 56.4C49.5521 60.7042 51.4521 62.875 60.1042 62.875C66.9958 62.875 69.9271 61.3188 69.9271 57.6625C69.9271 55.5583 69.0917 53.9958 58.3854 52.9479C49.4292 52.0646 43.8958 50.0917 43.8958 42.9292C43.8958 36.3313 49.4625 32.4021 58.7854 32.4021C69.2563 32.4021 74.4458 36.0375 75.1 43.8458C75.125 44.1167 75.0271 44.3771 74.8458 44.575C74.6667 44.7625 74.4125 44.8771 74.15 44.8771H69.9021C69.4604 44.8771 69.075 44.5667 68.9854 44.1396C67.9625 39.6125 65.4896 38.1646 58.7688 38.1646C51.2458 38.1646 50.3708 40.7833 50.3708 42.7479C50.3708 45.1292 51.4021 45.825 61.5521 47.1688C71.6042 48.5021 76.3771 50.3854 76.3771 57.45C76.3771 64.5708 70.4333 68.6563 60.0708 68.6563" fill="#21A366"/>
</svg>
