<svg width="100" height="100" viewBox="0 0 100 100" fill="none" xmlns="http://www.w3.org/2000/svg">
<g clip-path="url(#clip0_16_289)">
<path d="M29.7125 82.4354C28.7687 80.7854 28.7104 78.8104 29.4333 77.0833H9.92081L39.7521 26.3938L49.4458 42.8667L54.2812 34.6521L45.2021 19.2271C44.0541 17.275 42.0187 16.1104 39.7541 16.1083C39.7541 16.1083 39.7541 16.1083 39.7521 16.1083C37.4896 16.1083 35.4521 17.2729 34.3021 19.225L0.95414 75.8854C-0.193776 77.8354 -0.210443 80.2667 0.912474 82.2313C2.03539 84.1958 4.14164 85.4167 6.40414 85.4167H34.4C32.4583 85.225 30.6916 84.15 29.7125 82.4354Z" fill="#1DE9B6"/>
<path d="M99.2708 76.3354L69.7458 26.1708C68.6417 24.2958 66.6854 23.1771 64.5104 23.1771C62.3354 23.1771 60.3771 24.2958 59.2729 26.1708L54.2812 34.6521L59.1167 42.8666L64.5104 33.7041L89.5833 77.0833H79.1667C79.7042 78.7541 79.4812 80.675 78.5917 82.2312C77.4687 84.1958 75.1792 85.4166 72.9167 85.4166C72.9146 85.3896 72.9187 85.4437 72.9167 85.4166H93.75C95.9229 85.4166 98.2271 84.3229 99.3062 82.4354C100.387 80.55 100.373 78.2125 99.2708 76.3354Z" fill="#00BFA5"/>
<path d="M79.1667 77.0833C79.025 76.6459 78.7875 76.2896 78.55 75.8854L59.1167 42.8667L54.2812 34.6521L49.4458 42.8667L29.7479 76.3354C29.6083 76.5708 29.5375 76.8333 29.4333 77.0833C28.7104 78.8104 28.7667 80.7875 29.7125 82.4354C30.6917 84.1479 32.4583 85.2229 34.4 85.4167H73.1C75.3625 85.4167 77.4667 84.1959 78.5896 82.2313C79.4812 80.675 79.7042 78.7542 79.1667 77.0833ZM54.2812 51.0813L69.5854 77.0833H38.9792L54.2812 51.0813Z" fill="#00838F"/>
</g>
<defs>
<clipPath id="clip0_16_289">
<rect width="100" height="100" fill="white"/>
</clipPath>
</defs>
</svg>
