<svg width="100" height="100" viewBox="0 0 100 100" fill="none" xmlns="http://www.w3.org/2000/svg">
<path d="M91.8396 62.0625C91.4583 60.3354 89.8916 58.3208 86.7312 58.3208C86.0854 58.3208 85.3791 58.4021 84.575 58.5687C83.1 58.8729 81.8437 59.0208 80.7375 59.0708C89.3479 44.4042 94.9375 24.0312 89.402 16.9583C82.1083 7.63957 72.2896 6.2479 67.0875 6.2479L66.5979 6.24999C64.6625 6.28124 62.6541 6.51874 60.6333 6.95624L53.1687 8.56874C52.1521 8.44165 51.1166 8.35207 50.0375 8.33332H49.975H49.9416L49.625 8.33124C46.3062 8.33124 43.2791 9.0354 40.5812 10.3583L37.975 9.33124C34.3916 7.91874 29 6.23749 23.6666 6.23749C23.3666 6.23749 23.0687 6.24374 22.7687 6.25415C17.5146 6.44374 13.0021 8.43749 9.71664 12.0187C5.61664 16.4896 3.74997 23.0292 4.17289 31.4583C4.19372 31.8937 9.29372 75 23.75 75H23.8021L23.9354 74.9979C25.8125 74.9521 27.6021 74.1979 29.275 72.7542C30.5521 73.7125 32.2041 74.2792 33.7437 74.5042C34.7604 74.7437 36.5896 75.0833 38.7812 75.0833C41.4562 75.0833 43.8687 74.5354 45.9479 73.5458C45.9458 75.3792 45.9354 77.7 45.9146 80.6667L45.9125 80.8229L45.9229 80.9791C46.125 83.9354 46.6354 86.6 47.4041 88.6896C49.5937 94.6458 53.375 97.9271 58.0521 97.9271C58.2458 97.9271 58.4437 97.9208 58.6437 97.9083C62.4896 97.6708 66.3875 95.5104 69.0687 92.1333C71.9708 88.4771 72.6416 84.6187 72.9 81.6625L72.9166 81.4812V81.2979V72.8L73.1312 72.8208L74.0396 72.9L74.1271 72.9083L74.2146 72.9125C74.4729 72.925 74.7396 72.9292 75.0083 72.9292C78.1479 72.9292 82.0125 72.1146 84.625 70.9C87.1229 69.7417 92.8312 66.5583 91.8396 62.0625Z" fill="white"/>
<path d="M68.7499 70.8333C68.7499 70.4063 68.7749 70.05 68.7874 69.6563C68.7666 69.1333 68.7499 68.75 68.7499 68.75C68.7499 68.75 68.7749 68.7313 68.8166 68.7042C69.127 63.1354 70.6624 60.9896 72.3062 59.7667C72.077 59.4479 71.8124 59.1042 71.5645 58.7771C70.8708 57.8667 70.0062 56.7375 69.0812 55.2896L68.9104 54.9604C68.7708 54.6188 68.4333 54.0292 68.0041 53.2542C65.5395 48.7958 60.4104 39.5208 63.9208 33.6625C65.4583 31.0958 68.3416 29.6167 72.5062 29.2521C70.8041 24.4125 64.427 12.7396 49.9687 12.5C49.9645 12.5 49.9604 12.5 49.9562 12.5C37.3708 12.2958 33.2354 23.7333 31.8895 30.5667C33.7437 29.7813 35.8604 29.3042 37.7979 29.3042C37.827 29.3042 37.8583 29.3042 37.8874 29.3042C42.6583 29.3396 45.9395 31.8854 46.8937 36.2917C47.5916 39.525 47.927 42.3542 47.9187 44.9438C47.8979 50.6083 46.7562 53.5875 45.7479 56.2167L45.427 57.0667C45.1687 57.7625 44.8958 58.4104 44.6374 59.0188C44.3749 59.6396 44.1437 60.1917 43.9749 60.6896C44.9833 60.9188 45.7749 61.2417 46.3187 61.4813L46.6333 61.6188C46.7312 61.6604 46.8291 61.7083 46.9187 61.7625C48.6854 62.8375 49.7854 64.4896 50.0208 66.4146C50.1479 67.4521 50.127 74.525 50.0833 80.6958C50.2645 83.3729 50.7187 85.6208 51.3187 87.25C52.1708 89.5708 54.2999 94.0021 58.3895 93.7479C61.2437 93.5708 63.9874 91.8333 65.8083 89.5417C67.7624 87.0813 68.4833 84.3604 68.7541 81.2958V70.8333H68.7499Z" fill="#0277BD"/>
<path d="M31.4875 60.2437C28.1271 56.7375 26.4896 52.0208 27.1042 47.6271C27.698 43.3875 27.3625 39.2375 27.1813 37.0062C27.1209 36.2625 27.0813 35.7083 27.0834 35.4021C27.0834 35.3854 27.0875 35.3708 27.0896 35.3541C27.0896 35.3458 27.0855 35.3396 27.0855 35.3312C27.3375 29.0375 29.7646 19.1083 36.4459 13.2062C33.1917 11.925 27.8917 10.2354 22.9167 10.4166C15.1209 10.7 7.57504 16.0916 8.33337 31.25C8.61879 36.9375 15.0459 71.0479 23.8334 70.8333C25.0896 70.8021 26.3938 69.9958 27.7334 68.3833C29.8521 65.8354 31.9105 63.525 33.375 61.9166C32.7188 61.4187 32.0855 60.8687 31.4875 60.2437ZM77.1313 30.6896C77.1625 31.0104 77.1355 31.2854 77.0854 31.5396C77.15 33.4562 76.9438 35.3166 76.7334 37.1166C76.5792 38.4416 76.4209 39.8104 76.3771 41.1833C76.3334 42.5271 76.5229 43.8541 76.7229 45.2583C77.1917 48.5458 77.6792 52.2562 75.1292 56.5854C75.598 57.2021 76.0105 57.775 76.3396 58.3291C85.9438 42.7562 89.8146 24.2437 86.1209 19.525C80.5313 12.3833 72.7938 10.3166 66.6646 10.4166C64.7459 10.4479 63.0021 10.7062 61.5125 11.0291C72.0875 16.1541 76.798 27.1375 77.1313 30.6896ZM85.4167 62.6479C79.8646 63.7937 77.1938 63.1833 75.8979 62.3854C75.6896 62.5354 75.4813 62.6625 75.2875 62.7812C74.5125 63.25 73.2855 63.9958 72.9855 68.5771C73.1584 68.6104 73.3104 68.6291 73.4979 68.6687L74.4042 68.75C77.1542 68.875 80.7563 68.1041 82.8688 67.1229C87.4209 65.0104 89.9021 61.7229 85.4167 62.6479ZM45.8813 66.9146C45.8042 66.2937 45.4688 65.7916 44.8563 65.3896L44.6313 65.2916C43.8792 64.9604 43.0271 64.5833 41.6667 64.5833H41.6584C41.3938 64.6041 41.1313 64.6229 40.8667 64.6229C40.7584 64.6229 40.6521 64.6083 40.5438 64.6041C39.5563 65.3646 38.1521 65.9521 34.6771 66.6666C28.4688 68.2479 32.1334 70.1146 34.5146 70.4041C36.8188 70.9812 42.2959 71.6833 45.9334 68.7187C45.923 67.7854 45.9063 67.1437 45.8813 66.9146Z" fill="#0277BD"/>
<path d="M43.0854 38.5437C42.4771 39.1729 41.5167 39.7229 40.4563 39.5521C38.7313 39.2729 37.4083 37.1917 37.5042 36.4104C37.5958 35.6312 39.0688 35.225 40.7917 35.5042C41.3896 35.6021 41.9333 35.7708 42.3917 35.9792C41.725 34.5458 40.5188 33.7187 38.6792 33.5167C35.4188 33.1542 31.9583 34.8583 31.2625 35.8021C31.2771 36.0312 31.3042 36.325 31.3313 36.6708C31.525 39.0604 31.8833 43.5125 31.2271 48.2062C30.7938 51.3 32.0458 54.8083 34.4917 57.3625C36.0688 59.0083 37.9104 60.05 39.7271 60.3583C39.9583 59.3625 40.3708 58.3917 40.7958 57.3896C41.0313 56.8375 41.2813 56.25 41.5167 55.6146L41.8542 54.725C42.7771 52.3187 43.7292 49.8292 43.7479 44.9271C43.7563 43.0417 43.525 40.8896 43.0854 38.5437ZM72.5979 45.8479C72.3813 44.3292 72.1583 42.7563 72.2125 41.05C72.2604 39.5042 72.4313 38.0458 72.5958 36.6354C72.725 35.525 72.825 34.4583 72.8833 33.4062C70.1979 33.6292 68.4146 34.4042 67.5688 35.7146C67.9188 35.5958 68.3146 35.5021 68.7521 35.4458C70.6104 35.2042 71.9667 35.7396 72.1229 36.7729C72.2375 37.5292 71.5958 38.2417 71.3146 38.5146C70.7375 39.075 70.0104 39.4354 69.2708 39.5313C69.1375 39.5479 69.0021 39.5562 68.8708 39.5562C68.1354 39.5562 67.4333 39.3042 66.8938 38.9313C67.1271 43.0417 70.1583 48.5396 71.65 51.2375C71.9688 51.8146 72.2146 52.275 72.4188 52.6708C73.2375 50.3396 72.9354 48.2146 72.5979 45.8479Z" fill="#0277BD"/>
</svg>
